<svg xmlns="http://www.w3.org/2000/svg" width="23.469" height="23.469" viewBox="0 0 23.469 23.469">
  <path id="chat" d="M20.719,16.364a.917.917,0,0,1-.917-.917V14.164a.917.917,0,1,1,1.834,0v1.283A.917.917,0,0,1,20.719,16.364ZM3.667,15.448V8.709A3.671,3.671,0,0,1,7.334,5.042h1.7a.917.917,0,1,0,0-1.834h-1.7a5.507,5.507,0,0,0-5.5,5.5v6.738a.917.917,0,0,0,1.834,0Zm19.8,5.271a2.753,2.753,0,0,0-2.75-2.75H2.75a2.75,2.75,0,1,0,0,5.5H20.719A2.753,2.753,0,0,0,23.469,20.719Zm-2.75-.917a.917.917,0,0,1,0,1.834H2.75a.917.917,0,0,1,0-1.834ZM12.91,11.833l.083-.083a1.463,1.463,0,0,1,1.688-.277,5.979,5.979,0,0,0,2.689.628h.006a6.045,6.045,0,1,0-6.03-6v5.079a.917.917,0,0,0,1.565.648ZM13.179,9.6V6.1s0-.006,0-.009a4.217,4.217,0,1,1,8.434,0,4.24,4.24,0,0,1-4.238,4.176h0A4.163,4.163,0,0,1,15.5,9.832,3.291,3.291,0,0,0,13.179,9.6Z" fill="#3ab8c0"/>
</svg>
