<svg xmlns="http://www.w3.org/2000/svg" width="23.612" height="25.14" viewBox="0 0 23.612 25.14">
  <g id="notification" transform="translate(-7.58 -6)">
    <g id="Group_29986" data-name="Group 29986" transform="translate(18.419 6)">
      <path id="Path_20887" data-name="Path 20887" d="M30.967,8.9A.967.967,0,0,1,30,7.934V6.967a.967.967,0,1,1,1.934,0v.967A.967.967,0,0,1,30.967,8.9Z" transform="translate(-30 -6)" fill="#3ab8c0"/>
    </g>
    <g id="Group_29987" data-name="Group 29987" transform="translate(9.98 6.967)">
      <path id="Path_20888" data-name="Path 20888" d="M30.389,18.373a.967.967,0,0,1-.967-.967,7.472,7.472,0,0,0-14.91-.714c-.022.234-.033.473-.033.714a.967.967,0,1,1-1.934,0c0-.3.014-.6.042-.9a9.406,9.406,0,0,1,18.769.9.967.967,0,0,1-.967.967Z" transform="translate(-12.545 -8.001)" fill="#3ab8c0"/>
    </g>
    <g id="Group_29988" data-name="Group 29988" transform="translate(26.857 17.788)">
      <path id="Path_20889" data-name="Path 20889" d="M50.233,36.529a.967.967,0,0,1-.665-.264,6.8,6.8,0,0,1-2.115-4.915.967.967,0,0,1,1.934,0A4.854,4.854,0,0,0,50.9,34.86a.966.966,0,0,1-.665,1.669Z" transform="translate(-47.453 -30.382)" fill="#3ab8c0"/>
    </g>
    <g id="Group_29989" data-name="Group 29989" transform="translate(8.167 17.788)">
      <path id="Path_20890" data-name="Path 20890" d="M9.762,36.529A.967.967,0,0,1,9.1,34.86a4.853,4.853,0,0,0,1.511-3.511.967.967,0,0,1,1.934,0,6.794,6.794,0,0,1-2.115,4.915A.968.968,0,0,1,9.762,36.529Z" transform="translate(-8.795 -30.382)" fill="#3ab8c0"/>
    </g>
    <g id="Group_29990" data-name="Group 29990" transform="translate(14.552 25.339)">
      <path id="Path_20891" data-name="Path 20891" d="M26.835,51.8A4.9,4.9,0,0,1,22,46.967a.967.967,0,1,1,1.934,0,2.9,2.9,0,0,0,5.8,0,.967.967,0,1,1,1.934,0A4.9,4.9,0,0,1,26.835,51.8Z" transform="translate(-22 -46)" fill="#3ab8c0"/>
    </g>
    <g id="Group_29991" data-name="Group 29991" transform="translate(7.58 22.001)">
      <path id="Path_20892" data-name="Path 20892" d="M10.463,44.368a2.916,2.916,0,0,1-1.994-5.007.967.967,0,1,1,1.33,1.4.982.982,0,0,0,.664,1.668.967.967,0,1,1,0,1.934Z" transform="translate(-7.58 -39.096)" fill="#3ab8c0"/>
    </g>
    <g id="Group_29992" data-name="Group 29992" transform="translate(27.341 22)">
      <path id="Path_20893" data-name="Path 20893" d="M49.421,44.367a.967.967,0,0,1,0-1.934.983.983,0,0,0,.665-1.669.967.967,0,0,1,1.33-1.4,2.916,2.916,0,0,1-1.994,5.008Z" transform="translate(-48.454 -39.095)" fill="#3ab8c0"/>
    </g>
    <g id="Group_29993" data-name="Group 29993" transform="translate(9.98 15.406)">
      <path id="Path_20894" data-name="Path 20894" d="M13.511,29.77a.967.967,0,0,1-.967-.967V26.422a.967.967,0,1,1,1.934,0V28.8a.967.967,0,0,1-.967.967Z" transform="translate(-12.544 -25.455)" fill="#3ab8c0"/>
    </g>
    <g id="Group_29994" data-name="Group 29994" transform="translate(26.858 15.406)">
      <path id="Path_20895" data-name="Path 20895" d="M48.421,29.77a.967.967,0,0,1-.967-.967V26.422a.967.967,0,1,1,1.934,0V28.8A.967.967,0,0,1,48.421,29.77Z" transform="translate(-47.454 -25.455)" fill="#3ab8c0"/>
    </g>
    <g id="Group_29995" data-name="Group 29995" transform="translate(9.496 25.339)">
      <path id="Path_20896" data-name="Path 20896" d="M30.356,47.934H12.511a.967.967,0,1,1,0-1.934H30.355a.967.967,0,0,1,0,1.934Z" transform="translate(-11.544 -46)" fill="#3ab8c0"/>
    </g>
  </g>
</svg>
